# xmcd
#
# Track frame offsets: 
#        150
#        23336
#        41495
#        58966
#        75335
#        86888
#        100671
#        120107
#        136521
#        157268
#        177304
#        203396
#        219722
#
# Disc length: 3081 seconds
#
# Revision: 1
# Processed by: cddbd v1.5.1PL2 Copyright (c) Steve Scherf et al.
# Submitted via: ExactAudioCopy v0.95a5
#
DISCID=9b0c070d
DTITLE=David Dondero - South of The South
DYEAR=2005
DGENRE=Indie
TTITLE0=South of The South
TTITLE1=I've Seen The Love
TTITLE2=Journal Burning Party
TTITLE3=Let Go Of The Past
TTITLE4=Summertime Suicide #1
TTITLE5=Brownsville Rival
TTITLE6=The One That Fell From The Vine
TTITLE7=Perservere
TTITLE8=You Shouldn't Leave A Lover Alone Too Long
TTITLE9=Pornographic Love Song
TTITLE10=Laying Low in Eli, Nevada
TTITLE11=Hwy Death Shrine
TTITLE12=Summertime Suicide #2
EXTD=
EXTT0=
EXTT1=
EXTT2=
EXTT3=
EXTT4=
EXTT5=
EXTT6=
EXTT7=
EXTT8=
EXTT9=
EXTT10=
EXTT11=
EXTT12=
PLAYORDER=
